<svg width="1340" height="483" viewBox="0 0 1340 483" fill="none" xmlns="http://www.w3.org/2000/svg">
<path d="M1147.35 8.88799C1166.57 8.95633 1185.81 8.90302 1205.03 8.72879C1198.64 16.9499 1188.93 27.2768 1181.86 35.2989C1166.38 53.0133 1150.81 70.6421 1135.13 88.1838C1080.3 149.8 1025.86 211.772 971.837 274.093L991.317 274.274C1002 261.111 1015.09 246.705 1026.34 233.782C1053.27 202.811 1080.38 171.985 1107.65 141.307L1187.7 50.7062C1199.75 37.2259 1212.58 21.9402 1225.16 9.02768C1243.5 8.60562 1263.39 8.99539 1281.84 8.99915L1204.44 97.3864L1049.57 274.568C1073.26 273.248 1106.37 274.312 1130.71 274.366C1135.12 254.01 1137.58 232.883 1141.16 212.326C1142.43 205.022 1143.08 195.994 1146.09 189.233C1148.11 184.695 1193.92 133.056 1200.64 126.239C1198.3 136.939 1175.79 271.605 1176.55 274.262L1176.52 274.895C1174.55 276.901 1170.67 305.627 1169.1 311.331C1168.77 312.795 1167.68 317.376 1167.68 318.594C1166.99 322.104 1165.48 328.509 1165.7 331.829C1166.52 332.582 1166.48 332.683 1167.54 332.904L1167.53 333.437L1165.78 333.902C1164.9 335.576 1157.3 375.701 1157.43 376.687L1157.65 377.023C1157.79 381.15 1153.88 402.936 1152.96 408.438L1140.45 482.083C1125.4 481.959 1110.34 481.981 1095.27 482.148C1102.12 447.831 1106.11 410.051 1113.31 377.018L987.36 377.054L953.235 332.653C1009.15 333.085 1065.06 333.2 1120.98 333L1123.21 318.511C1064.64 317.884 1001.32 317.88 942.789 318.699C935.302 307.141 919.644 287.738 910.94 276.21C920.77 263.043 936.211 247.589 947.378 234.697L1051.33 116.973L1119.58 39.1995C1125.04 33.0737 1142 13.2212 1147.35 8.88799Z" fill="#5E1313"/>
<path d="M1273.43 44.8117C1269.58 62.1881 1267.47 82.1991 1264.14 100.023C1253.37 157.577 1245.82 216.96 1235.38 274.388L1250.77 274.518C1253.67 260.493 1257.04 246.566 1260.85 232.76C1264.13 244.803 1268.56 267.472 1272.05 277.714C1276.53 255.807 1278.17 229.224 1282.11 206.873C1283.56 198.669 1284.2 189.537 1286.3 181.501C1287.7 190.826 1299.13 271.867 1300.83 274.4L1302.11 274.566C1304.4 270.217 1310.59 239.978 1312.08 233.223C1316.17 246.906 1319.78 260.728 1322.9 274.663L1339.18 274.703C1332.58 288.165 1325.2 304.87 1319.45 318.778C1289.6 317.969 1257.73 318.548 1227.72 318.542C1226.92 323.207 1226.16 328.111 1225.27 332.736C1229.64 332.863 1236.83 332.846 1240.97 333.278C1262.44 332.15 1291.35 332.949 1313.28 332.885C1307.36 347.276 1299.72 362.463 1293.28 376.958C1277.9 376.999 1261.64 377.296 1246.32 376.828C1237.4 377.18 1226.74 376.931 1217.7 376.954C1211.77 411.941 1206.11 446.971 1200.7 482.041L1155.76 482.032C1162.05 448.126 1166.41 411.258 1172.56 376.954L1157.65 377.023L1157.43 376.687C1157.3 375.701 1164.9 335.576 1165.78 333.902L1167.53 333.437L1167.54 332.903C1166.48 332.683 1166.52 332.582 1165.7 331.829C1165.48 328.509 1166.99 322.104 1167.68 318.594C1167.68 317.376 1168.77 312.795 1169.1 311.331C1170.67 305.627 1174.55 276.901 1176.52 274.895L1176.55 274.262L1190.13 274.34C1192.53 257.749 1195.91 241.318 1198.66 224.779C1200.98 210.761 1215.78 113.07 1219.4 106.53C1223.51 99.0851 1231.53 91.7314 1237.19 85.3089C1249.17 71.7415 1261.01 57.9638 1273.43 44.8117Z" fill="#5E1313"/>
<path d="M1243.87 333.278C1265.34 332.15 1294.25 332.949 1316.18 332.886C1310.25 347.276 1302.62 362.463 1296.18 376.958C1280.79 376.999 1264.53 377.296 1249.21 376.828C1244.98 375.777 1226.46 376.02 1220.87 376.001C1222.01 365.844 1225.11 343.762 1227.41 334.139C1228.97 333.426 1240.06 333.692 1243.87 333.278Z" fill="#5E1313"/>
<path d="M1167.53 333.437C1172.19 333.682 1175.77 333.711 1180.44 333.594C1178.28 344.219 1176.19 354.858 1174.32 365.537C1173.95 367.633 1173.53 376.224 1172.56 376.954L1157.65 377.023L1157.43 376.687C1157.3 375.701 1164.9 335.576 1165.78 333.902L1167.53 333.437Z" fill="#732020"/>
<path d="M1176.52 274.895C1181.22 275.07 1185.93 275.147 1190.63 275.127C1186.56 284.739 1186.35 300.246 1184.25 310.691C1183.57 314.101 1185.14 318.069 1182 319.485L1181.71 318.697L1167.68 318.594C1167.68 317.376 1168.77 312.795 1169.1 311.331C1170.67 305.627 1174.55 276.901 1176.52 274.895Z" fill="#732020"/>
<path d="M888.328 150.979L951.966 150.844C949.676 153.508 947.272 155.989 944.862 158.542C916.205 188.905 888.463 220.549 859.198 250.307C863.922 257.246 871.702 266.724 876.959 273.543C888.704 288.884 900.592 304.124 912.607 319.26C927.281 338.309 942.188 358.279 957.403 376.785C935.662 376.568 913.922 376.567 892.181 376.785C889.507 373.923 886.684 370.241 884.266 367.131C863.907 340.997 842.714 315.141 822.618 288.821C813.478 299.237 802.499 309.696 792.962 320.101L792.601 376.893C777.154 375.913 754.955 376.478 739.199 376.624C739.32 302.119 740.063 225.285 738.997 150.985L792.676 150.889C793.127 184.506 792.706 218.756 792.834 252.443C813.253 230.348 833.8 208.377 854.482 186.53C865.401 174.959 877.071 162.087 888.328 150.979Z" fill="#F1DAC4"/>
<path d="M980.218 114.361C983.958 87.3231 988.118 60.3452 992.699 33.4372C994.006 25.5976 996.409 7.45059 998.376 0.991304C1000.56 -0.31317 1000.07 0.0796052 1002.87 0C1005.32 1.34803 1005.74 4.42635 1006.16 7.21703C1010.82 37.5594 1019.31 69.4623 1023.59 99.6364C1030.24 82.0249 1037.04 63.0142 1042.34 44.9949C1045.12 50.9113 1051.84 66.2067 1054.93 70.8261C1064.67 63.7795 1078.83 52.9262 1087.9 45.1804C1067.44 72.7786 1036.01 105.004 1013.55 132.218C1010.05 112.342 1005.58 90.623 1002.49 70.9305C1000.07 87.1624 997.768 103.412 995.59 119.679C994.103 131.186 992.744 144.718 990.784 156.011C988.486 158.588 982.2 166.521 979.069 166.822C976.057 161.063 974.578 151.937 972.858 145.562C968.405 129.09 965.378 106.606 959.649 90.9519C957.846 102.8 955.165 113.702 952.957 125.403L927.664 125.317C924.766 117.711 920.718 107.758 916.835 100.548C913.163 108.841 909.446 117.116 905.683 125.372C895.305 125.332 884.596 125.436 874.248 125.244C870.958 119.061 866.182 109.436 862.652 103.66C858.537 109.921 852.574 118.446 849.217 124.906C834.378 125.733 816.505 125.311 801.448 125.295L720.973 125.207L675.186 125.263C669.651 125.263 655.826 125.483 651.042 124.777C644.576 124.807 640.183 124.601 633.739 124.01C649.766 121.936 670.342 120.311 686.571 119.225C689.838 118.229 722.408 115.943 727.634 115.536L839.425 107.152C848.857 96.5595 857.253 82.1285 864.139 74.5998C871.214 85.3255 879.256 99.7926 885.767 111.118L894.156 110.349C897.032 104.347 912.788 67.958 916.37 66.4673C916.88 66.2555 917.879 66.8909 918.397 67.1147C920.846 70.1682 935.933 105.352 939.417 112.398C943.976 99.3194 955.811 42.5767 961.03 37.8838L962.502 37.85C965.251 42.1629 978.626 105.102 980.218 114.361Z" fill="#5E1313"/>
<path d="M483.828 151.028L529.356 150.864C539.115 161.002 556.406 183.639 565.849 195.142L637.81 282.637C638.058 273.797 638.238 264.84 638.133 256C637.72 221.117 638.944 185.835 637.975 150.993L691.55 150.964C691.557 172.353 692.804 373.354 690.814 376.681L688.11 376.797C674.51 376.315 660.174 376.646 646.514 376.759C618.326 340.704 587.993 305.641 559.053 270.141C551.922 261.393 544.63 252.442 536.97 244.186L536.983 376.81C522.323 375.908 498.629 376.225 483.849 376.746C484.4 367.886 484.06 356.133 484.044 347.097L483.965 294.559C483.978 247.136 484.599 198.303 483.828 151.028Z" fill="#F1DAC4"/>
<path d="M0.326095 151.251L63.0026 151.168C90.8954 151.166 115.466 149.343 143.266 157.757C188.702 171.508 204.789 215.182 191.849 258.725C185.528 279.996 170.899 292.069 151.097 301.829C168.569 326.193 184.877 351.976 202.437 376.551L184.541 376.515L143.124 376.502C139.166 371.714 133.35 362.263 129.633 356.875C119.523 342.218 109.927 326.983 99.4971 312.539L53.6927 312.616L53.6935 376.516C36.352 376.169 17.6789 376.546 0.236726 376.583C-0.0156018 366.503 0.0347189 355.936 0.143611 345.845C0.842019 281.057 -0.611124 216.008 0.326095 151.251ZM131.023 258.367C144.611 246.336 146.535 220.989 134.128 207.87C115.584 188.262 78.1475 195.828 53.6597 194.584L53.6942 269.177C77.6692 269.534 112.629 273.847 131.023 258.367Z" fill="#F1DAC4"/>
<path d="M312.25 150.384C326.921 149.829 352.182 149.814 366.612 150.751C369.744 156.095 372.749 163.497 375.428 169.29C381.703 182.779 387.795 196.353 393.702 210.008C410.637 248.374 427.81 286.634 445.219 324.786C452.427 340.439 460.683 360.817 468.859 375.509L411.285 375.704C403.832 360.324 398.034 343.891 390.629 328.722L367.004 328.703L286.771 328.677C280.014 343.06 272.344 360.838 266.437 375.548L210 375.629C212.135 372.021 214.904 364.927 216.745 360.768L228.614 334.359C250.639 284.934 287.298 203.406 310.345 151.387C311.084 150.998 311.719 150.663 312.25 150.384ZM303.352 287.308C315.225 287.177 327.099 287.157 338.972 287.248C350.172 287.072 361.374 287.05 372.574 287.181C371.529 283.041 363.36 262.376 361.555 259.195C356.998 251.163 341.609 205.811 338.232 203.154C326.656 231.682 315.762 259.083 303.352 287.308Z" fill="#F1DAC4"/>
</svg>
